# xmcd
#
# Track frame offsets: 
#        150
#        13202
#        30148
#        52354
#        72584
#        85728
#        100053
#        116909
#        135978
#        162571
#        177199
#        191087
#
# Disc length: 2764 seconds
#
# Revision: 0
# Processed by: cddbd v1.5.2PL0 Copyright (c) Steve Scherf et al.
# Submitted via: ExactAudioCopy v1.0b1
#
DISCID=a50aca0c
DTITLE=Jerry Jeff Walker - It's A Good Night For Singin'
DYEAR=1976
DGENRE=Country
TTITLE0=(Looking For) The Heart Of Saturday Night
TTITLE1=Standin' At The Big Hotel
TTITLE2=Couldn't Do Nothin' Right
TTITLE3=Won't You Give Me One More Chance
TTITLE4=Head Full Of Nothin'
TTITLE5=Old Five And Dimers Like Me
TTITLE6=Very Short Time
TTITLE7=Some Day I'll Get Out Of These Bars
TTITLE8=Stoney
TTITLE9=Dear John Letter Lounge
TTITLE10=Leroy
TTITLE11=It's A Good Night For Singin'
EXTD=
EXTT0=
EXTT1=
EXTT2=
EXTT3=
EXTT4=
EXTT5=
EXTT6=
EXTT7=
EXTT8=
EXTT9=
EXTT10=
EXTT11=
PLAYORDER=
